<?xml version="1.0" encoding="UTF-8" standalone="no"?>
<!-- Created with Inkscape (http://www.inkscape.org/) -->

<svg
   width="459.88739"
   height="144.19922"
   viewBox="0 0 459.88739 144.19922"
   version="1.1"
   id="svg1"
   sodipodi:docname="logo_admin_dark_mode.svg"
   inkscape:version="1.4.2 (ebf0e940d0, 2025-05-08)"
   xml:space="preserve"
   xmlns:inkscape="http://www.inkscape.org/namespaces/inkscape"
   xmlns:sodipodi="http://sodipodi.sourceforge.net/DTD/sodipodi-0.dtd"
   xmlns="http://www.w3.org/2000/svg"
   xmlns:svg="http://www.w3.org/2000/svg"><sodipodi:namedview
     id="namedview1"
     pagecolor="#ffffff"
     bordercolor="#000000"
     borderopacity="0.25"
     inkscape:showpageshadow="2"
     inkscape:pageopacity="0.0"
     inkscape:pagecheckerboard="0"
     inkscape:deskcolor="#d1d1d1"
     inkscape:zoom="1.9309075"
     inkscape:cx="181.52087"
     inkscape:cy="73.540551"
     inkscape:window-width="1920"
     inkscape:window-height="1006"
     inkscape:window-x="0"
     inkscape:window-y="0"
     inkscape:window-maximized="1"
     inkscape:current-layer="svg1"><inkscape:page
       x="0"
       y="0"
       width="459.88739"
       height="144.19922"
       id="page2"
       margin="0"
       bleed="0" /></sodipodi:namedview><defs
     id="defs1"><clipPath
       clipPathUnits="userSpaceOnUse"
       id="clipPath220"><path
         id="path221"
         style="fill:#ff0000;fill-opacity:1;fill-rule:nonzero;stroke:none;stroke-width:2.25454"
         d="M 224.75138,90.161853 V 210.41564 h 120.25096 v -26.81339 c -0.33462,-0.0159 -0.67106,-0.013 -1.00698,-0.0144 h -2.14701 -2.93663 -2.59504 -2.51966 -2.90113 -2.70597 -1.38404 c -0.0897,0 -0.16103,-0.013 -0.2351,-0.0225 h -0.1374 -0.81622 -0.76742 -0.65655 c -0.16761,0.009 -0.33448,0.009 -0.50126,0.0225 -0.0354,0.003 -0.0479,-0.009 -0.0799,-0.009 -0.16444,0.0101 -0.32686,0.0216 -0.49238,0.0281 -0.14059,0.006 -0.28527,0.006 -0.42586,0.009 -0.11197,9.2e-4 -0.22076,-2.3e-4 -0.33271,0 -0.15513,2.2e-4 -0.31064,-3e-5 -0.46579,0 -0.18169,3e-5 -0.36392,0 -0.54561,0 h -0.56336 -0.50571 -0.13764 c -0.11833,0 -0.22031,-0.0115 -0.30164,-0.031 -0.50153,-0.0101 -0.64671,-0.245 -0.40812,-0.38261 -0.0293,-0.0503 -0.0422,-0.1027 0.005,-0.15473 -0.77938,-0.0334 -1.55882,-0.066 -2.33776,-0.10414 -0.82857,-0.0383 -1.65843,-0.0608 -2.48861,-0.0788 -2.93486,-0.0637 -2.92664,-1.88726 -0.16852,-1.94117 0.089,-10e-4 0.18033,-10e-4 0.27504,0 0.87331,0.019 1.74565,0.0413 2.61723,0.0815 0.95133,0.0464 1.90066,0.0909 2.85235,0.12935 -0.0264,-0.0223 -0.0572,-0.0438 -0.0797,-0.0675 -0.64028,-0.60575 -0.55366,-1.10174 -0.64767,-1.8005 0.0159,-0.21013 0.0316,-0.42008 0.0443,-0.63018 -0.53821,-0.30836 -0.9575,-0.83461 -1.05133,-1.60357 -0.06,-0.49122 -0.12196,-0.97975 -0.17306,-1.47135 -0.0529,-0.86112 -0.13469,-1.72164 -0.26174,-2.57979 -0.201,-1.41914 -0.41275,-2.83824 -0.40367,-4.26493 -0.0397,-1.6007 -0.007,-3.20145 0.005,-4.80228 0.0263,-1.924 0.0668,-3.84923 0.13309,-5.77285 0.0677,-1.91994 0.15626,-3.8389 0.23067,-5.7588 -1.69259,0.2728 -3.25079,0.52075 -5.74017,0.93402 -2.72609,0.45261 -7.88751,1.30913 -10.91256,1.86802 -1.70469,0.3148 -2.11542,0.41465 -3.51332,0.72582 -3.90917,0.87052 -5.04467,-2.11406 -1.13559,-2.98488 1.41491,-0.31531 1.83645,-0.41536 3.5887,-0.73991 3.10266,-0.57462 8.24141,-1.43399 11.0767,-1.90458 2.91408,-0.48395 4.77805,-0.77976 6.73383,-1.09438 0.0818,-3.79606 0.10062,-7.59183 0.15535,-11.38817 0.007,-0.44354 0.0229,-0.8871 0.0311,-1.33067 -0.10107,6.1e-4 -0.19351,0.007 -0.29721,0.006 -3.86191,-0.053 -7.76411,-0.0205 -11.61787,-0.24756 -1.00181,-0.0588 -2.57475,0.42987 -2.99429,-0.25882 -1.33085,-2.1838 -1.003,-4.74685 -1.50381,-7.12042 0.59377,-0.16672 1.17198,-0.37506 1.78326,-0.50077 0.96734,-0.19882 4.20509,-0.50391 4.89736,-0.57109 2.72859,-0.26487 5.46197,-0.49606 8.19771,-0.7174 -0.0204,-0.006 -0.0411,-0.0115 -0.0622,-0.0168 0.0674,-0.0991 0.14127,-0.19689 0.21735,-0.29259 -0.0952,-0.0833 0.19169,-0.21329 0.26615,-0.32072 0.48808,-0.70216 0.89291,-1.42556 1.31751,-2.14372 -0.0204,-0.78546 -0.0543,-1.56996 -0.11969,-2.35472 h 0.005 c -0.0843,-1.00945 0.46067,-1.64281 1.18885,-1.90178 0.0529,-0.0978 0.0815,-0.2007 0.15536,-0.29257 -4.1e-4,-0.0101 2.5e-4,-0.0183 0,-0.0281 -0.007,-0.23915 0.0942,-0.48713 0.28833,-0.69207 0.0497,-0.0524 0.11583,-0.0998 0.17307,-0.14911 0.0182,-0.0115 0.0452,-0.0278 0.0754,-0.0449 h -0.30609 c -0.69793,0 -0.72975,-0.40452 -0.14195,-0.46983 0.0756,-0.069 0.22894,-0.12229 0.4569,-0.12661 0.0227,-4.2e-4 0.0472,-5.3e-4 0.0709,0 0.0204,4.8e-4 0.0418,-4.9e-4 0.062,0 0.14535,0.004 0.28958,0.0101 0.43471,0.0168 0.17102,0.007 0.34334,0.009 0.51459,0.009 h 0.66983 0.80291 0.8384 0.5545 c 0.1374,0 0.24963,0.0161 0.33714,0.0422 0.0738,0 0.14808,-3e-5 0.2219,0 0.0659,0 0.129,-3e-5 0.19509,0 0.0743,0 0.14763,-1.3e-4 0.22168,0 0.0813,1e-4 0.16739,-6.5e-4 0.2484,0 0.0763,0 0.15036,0.009 0.22622,0.0115 0.0561,9.8e-4 0.11219,0.006 0.16852,0.006 h 0.12855 0.11538 0.15081 0.13741 0.005 c 0.0159,0 0.0345,-0.001 0.0488,0 0.0252,-0.004 0.0443,-0.009 0.0754,-0.009 1.269,0.0406 2.54053,0.0385 3.81051,0.0449 1.84374,0.0101 3.68791,0.0179 5.53169,0.0197 1.64517,10e-4 3.29197,0.003 4.93727,0.003 1.28031,1.5e-4 2.55686,-2.3e-4 3.83713,0 h 0.41254 V 90.161882 Z M 329.1747,175.87977 c -0.0204,0.001 -0.0345,0.007 -0.0531,0.0115 -0.002,0.0266 -0.0159,0.0519 -0.0182,0.0788 -0.002,0.0252 0.0704,-0.0298 0.0709,-0.0534 1.4e-4,-0.013 -2e-4,-0.0254 0,-0.0366 z" /></clipPath><clipPath
       clipPathUnits="userSpaceOnUse"
       id="clipPath222"><path
         id="path222"
         style="fill:#ff0000;fill-opacity:1;fill-rule:nonzero;stroke:none"
         d="M 310.55664,206.07812 V 350.27734 H 491.17188 V 206.07812 Z m 69.23828,51.78711 c 0.47605,4e-5 0.97884,0.47178 1.03125,1.41407 0.0593,1.07345 0.0637,2.14983 0.0645,3.22461 -0.0471,2.6041 -0.0907,5.20809 -0.11718,7.8125 -0.0255,2.79236 -0.0304,5.58477 -0.0723,8.37695 -0.0288,1.92363 -0.0957,3.84619 -0.13867,5.76953 -0.029,1.32676 -0.0471,2.65346 -0.0586,3.98047 -0.005,1.09588 -0.0214,2.19131 -0.004,3.28711 -0.005,0.94359 0.0876,1.88179 0.17188,2.82031 0.0588,0.6277 0.0964,1.25685 0.12109,1.88672 0.0226,0.317 0.0458,0.6343 0.0703,0.95117 0.14566,1.88185 -1.75476,2.02835 -1.90039,0.14649 -0.0264,-0.34102 -0.0537,-0.68019 -0.0762,-1.02149 -0.0233,-0.59783 -0.0593,-1.19525 -0.11524,-1.79101 -0.0885,-0.98525 -0.18173,-1.97046 -0.17773,-2.96094 -0.0175,-1.11129 -0.003,-2.22262 0.002,-3.33399 0.0116,-1.33574 0.0294,-2.67233 0.0586,-4.00781 0.0429,-1.91868 0.11172,-3.8369 0.14062,-5.75586 0.042,-2.7891 0.0468,-5.57792 0.0723,-8.36718 0.0264,-2.5976 0.0675,-5.19569 0.11523,-7.79297 -5e-4,-1.07524 -0.008,-2.15058 -0.0644,-3.22461 h 0.002 c -0.05,-0.94242 0.39895,-1.4141 0.875,-1.41407 z" /></clipPath></defs><g
     id="layer1"
     transform="translate(-31.284332,-206.07812)"><rect
       style="fill:#1b2532;fill-opacity:1;stroke:none;stroke-width:4.338;stroke-linecap:round;stroke-linejoin:round;stroke-miterlimit:2.1;stroke-dasharray:none;stroke-opacity:1"
       id="rect4"
       width="161"
       height="127"
       x="321"
       y="213" /><rect
       style="fill:#000000;fill-opacity:0;stroke:#ffffff;stroke-width:12.8807;stroke-linecap:round;stroke-linejoin:round;stroke-dasharray:none;stroke-opacity:1;paint-order:normal"
       id="rect157"
       width="167.73463"
       height="131.31891"
       x="316.99673"
       y="212.51845"
       rx="10.577118"
       ry="13.405881"
       clip-path="url(#clipPath222)" /><path
       style="fill:#ffffff;fill-opacity:0;stroke-width:0.5"
       d="m 290.62165,142.23186 c -3.72097,-1.85939 -6.23881,-4.56453 -8.30255,-8.92017 L 280.75,130 V 72 14 l 1.53791,-3.25 c 1.80131,-3.8066405 5.17437,-7.3761612 8.55767,-9.0561086 L 293.25,0.5 369.22523,0.36865755 c 83.93938,-0.14511054 78.95872,-0.32587245 83.35212,3.02508445 2.8275,2.156604 5.07218,5.1636065 6.50568,8.715103 L 460.25,15 l 0.13772,55.193285 c 0.0886,35.519175 -0.0418,56.164155 -0.36577,57.916925 -0.85313,4.61496 -2.87147,8.39276 -6.06218,11.3468 -5.05941,4.68412 2.59092,4.29299 -83.96898,4.29299 h -76.33107 z m 154.45373,-11.0222 c 0.5553,-0.29719 1.43557,-1.47844 1.95615,-2.625 0.90986,-2.00394 0.94694,-4.18866 0.95749,-56.42711 0.008,-37.303357 -0.15624,-54.783788 -0.52232,-55.75 -0.29332,-0.774152 -1.00754,-1.9138 -1.58716,-2.53255 l -1.05385,-1.125 h -74.58535 c -70.40958,0 -74.62808,0.04899 -75.3486,0.875 -2.21443,2.538674 -2.13347,0.53451 -2.29756,56.875 -0.11155,38.30333 0.004,54.24064 0.40693,56.10742 0.40346,1.86941 0.98912,2.96619 2.06918,3.875 l 1.50644,1.26758 h 73.74451 c 51.87727,0 74.04389,-0.16022 74.75414,-0.54034 z"
       id="path1"
       transform="translate(30.496094,206.07812)" /><path
       style="fill:#ffffff;fill-opacity:0;stroke-width:0.5"
       d="m 290.62165,142.23186 c -3.72097,-1.85939 -6.23881,-4.56453 -8.30255,-8.92017 L 280.75,130 V 72 14 l 1.53791,-3.25 c 1.80131,-3.8066405 5.17437,-7.3761612 8.55767,-9.0561086 L 293.25,0.5 369.22523,0.36865755 c 83.93938,-0.14511054 78.95872,-0.32587245 83.35212,3.02508445 2.8275,2.156604 5.07218,5.1636065 6.50568,8.715103 L 460.25,15 l 0.13772,55.193285 c 0.0886,35.519175 -0.0418,56.164155 -0.36577,57.916925 -0.85313,4.61496 -2.87147,8.39276 -6.06218,11.3468 -5.05941,4.68412 2.59092,4.29299 -83.96898,4.29299 h -76.33107 z m 154.45373,-11.0222 c 0.5553,-0.29719 1.43557,-1.47844 1.95615,-2.625 0.90986,-2.00394 0.94694,-4.18866 0.95749,-56.42711 0.008,-37.303357 -0.15624,-54.783788 -0.52232,-55.75 -0.29332,-0.774152 -1.00754,-1.9138 -1.58716,-2.53255 l -1.05385,-1.125 h -74.58535 c -70.40958,0 -74.62808,0.04899 -75.3486,0.875 -2.21443,2.538674 -2.13347,0.53451 -2.29756,56.875 -0.11155,38.30333 0.004,54.24064 0.40693,56.10742 0.40346,1.86941 0.98912,2.96619 2.06918,3.875 l 1.50644,1.26758 h 73.74451 c 51.87727,0 74.04389,-0.16022 74.75414,-0.54034 z"
       id="path6"
       transform="translate(30.496094,206.07812)" /></g><path
     d="M 8.9406967e-8,109.30417 V 27.743601 H 28.429366 q 10.904414,0 15.577735,2.22539 4.67332,2.169756 7.677597,7.621963 3.004278,5.396573 3.004278,12.962901 0,9.56918 -4.617686,15.41083 -4.562051,5.841651 -13.018535,7.34379 4.339512,3.115547 7.176885,6.843076 2.837373,3.671894 7.733232,13.241074 l 8.122676,15.911545 H 44.007101 L 34.215382,91.556678 Q 28.930079,81.931863 27.038497,79.539568 25.146915,77.091639 23.032794,76.201482 20.918672,75.255691 16.245352,75.255691 H 13.463614 V 109.30417 Z M 13.463614,62.237156 h 10.014258 q 9.179736,0 11.683301,-0.778887 2.503564,-0.834521 4.061338,-3.282451 1.557773,-2.44793 1.557773,-6.509268 0,-3.894433 -1.557773,-6.231094 -1.557774,-2.392295 -4.228243,-3.282451 -1.891582,-0.611982 -10.960049,-0.611982 H 13.463614 Z m 50.850176,16.69043 q 0,-8.679024 3.449355,-15.800274 3.449356,-7.12125 9.012832,-10.681875 5.563477,-3.560625 12.517823,-3.560625 11.6833,0 18.35947,9.179736 6.67618,9.124102 6.67618,21.363751 0,9.124102 -3.505,16.467891 -3.44935,7.34379 -9.1241,11.07132 -5.619108,3.67189 -12.350915,3.67189 -10.793145,0 -17.914395,-8.23394 -7.12125,-8.233948 -7.12125,-23.477874 z m 13.129805,0.834522 q 0,8.957197 3.50499,13.574883 3.50499,4.562051 8.456485,4.562051 4.840224,0 8.28958,-4.617686 3.44936,-4.617686 3.44936,-13.630518 0,-8.790293 -3.504995,-13.407979 -3.50499,-4.617685 -8.40085,-4.617685 -4.840224,0 -8.345215,4.617685 -3.449355,4.617686 -3.449355,13.519249 z m 43.951465,-0.834522 q 0,-8.679024 3.44935,-15.800274 3.44936,-7.12125 9.01284,-10.681875 5.56347,-3.560625 12.51782,-3.560625 11.6833,0 18.35947,9.179736 6.67617,9.124102 6.67617,21.363751 0,9.124102 -3.50499,16.467891 -3.44935,7.34379 -9.1241,11.07132 -5.61911,3.67189 -12.35092,3.67189 -10.79314,0 -17.91439,-8.23394 -7.12125,-8.233948 -7.12125,-23.477874 z m 13.1298,0.834522 q 0,8.957197 3.50499,13.574883 3.50499,4.562051 8.45649,4.562051 4.84022,0 8.28958,-4.617686 3.44935,-4.617686 3.44935,-13.630518 0,-8.790293 -3.50499,-13.407979 -3.50499,-4.617685 -8.40085,-4.617685 -4.84022,0 -8.34521,4.617685 -3.44936,4.617686 -3.44936,13.519249 z m 45.95433,-29.542062 h 11.79457 v 8.067042 q 3.17119,-4.728956 6.95435,-7.065616 3.78316,-2.33666 8.17831,-2.33666 4.67332,0 8.06704,2.33666 3.44936,2.33666 5.61911,7.065616 3.22682,-4.728956 6.89871,-7.065616 3.72753,-2.33666 7.90014,-2.33666 4.9515,0 8.51212,2.392295 3.61626,2.33666 5.45221,6.731807 1.89158,4.395146 1.89158,13.519248 V 109.30417 H 238.8957 V 75.533865 q 0,-8.845928 -1.55778,-11.738936 -1.55777,-2.948642 -5.22966,-2.948642 -4.28388,0 -6.89871,4.116973 -2.61484,4.061338 -2.61484,15.967178 V 109.30417 H 209.74308 V 76.924734 q 0,-9.624814 -1.05706,-12.406553 -1.39087,-3.671894 -5.61911,-3.671894 -2.83737,0 -5.22967,1.891582 -2.39229,1.891582 -3.44936,5.563477 -1.05706,3.616259 -1.05706,12.295283 v 28.707541 h -12.85163 z"
     id="text2"
     style="font-weight:bold;font-stretch:condensed;font-size:113.94px;font-family:Arial;-inkscape-font-specification:'Arial, Bold Condensed';fill:#ffffff;stroke-width:10.3016"
     aria-label="Room"
     transform="scale(1.0681829,0.93616927)" /><path
     id="path1-7"
     style="fill:#d74141;fill-opacity:1;stroke-width:0.23944"
     d="m 345.79886,53.966227 a 0.95738561,0.95738561 0 0 0 -0.57915,0.191918 l -5.00851,3.756809 c -0.61913,-0.02675 -1.24309,-0.02675 -1.86227,0 l -5.00682,-3.755111 a 0.95771028,0.95771028 0 0 0 -0.82371,-0.158801 25.723299,25.723299 0 0 0 -6.10907,2.528036 0.95773786,0.95773786 0 0 0 -0.4713,0.694639 l -0.88485,6.199074 c -0.45702,0.418566 -0.89757,0.859259 -1.31625,1.316247 l -6.19568,0.884851 a 0.95832686,0.95832686 0 0 0 -0.69549,0.470453 25.728923,25.728923 0 0 0 -2.53143,6.10737 0.95785144,0.95785144 0 0 0 0.1588,0.82456 l 3.76021,5.012763 c -0.017,0.614237 -0.008,1.403879 0.007,1.846135 l -3.76361,5.018711 a 0.95772178,0.95772178 0 0 0 -0.1588,0.823711 25.726544,25.726544 0 0 0 2.52804,6.108218 0.95786586,0.95786586 0 0 0 0.69548,0.471294 l 6.19823,0.88571 c 0.41876,0.45713 0.85939,0.89778 1.31624,1.31624 l 0.88486,6.195676 a 0.95763319,0.95763319 0 0 0 0.4713,0.69464 25.731748,25.731748 0 0 0 6.10651,2.53228 0.95744536,0.95744536 0 0 0 0.82457,-0.1588 l 5.00852,-3.75681 c 0.61919,0.0268 1.24309,0.0268 1.86226,0 l 5.00683,3.75511 a 0.95733411,0.95733411 0 0 0 0.82371,0.15881 25.723222,25.723222 0 0 0 6.10906,-2.52804 0.95773319,0.95773319 0 0 0 0.47045,-0.69464 l 0.88571,-6.204166 c 0.44666,-0.42207 0.99603,-0.98888 1.3018,-1.3086 l 6.21013,-0.88741 a 0.95832245,0.95832245 0 0 0 0.69462,-0.470444 25.728798,25.728798 0 0 0 2.5323,-6.107371 0.95784603,0.95784603 0 0 0 -0.15881,-0.82456 l -3.76021,-5.012762 c 0.0172,-0.614316 0.007,-1.403835 -0.007,-1.846136 l 3.76446,-5.01871 a 0.95771461,0.95771461 0 0 0 0.15795,-0.823712 25.7265,25.7265 0 0 0 -2.52719,-6.108218 0.95787469,0.95787469 0 0 0 -0.69548,-0.471302 l -6.19824,-0.885701 c -0.41861,-0.456974 -0.85928,-0.897655 -1.31624,-1.316246 l -0.88486,-6.195679 a 0.95764036,0.95764036 0 0 0 -0.4713,-0.694638 25.731656,25.731656 0 0 0 -6.10651,-2.53228 0.95738561,0.95738561 0 0 0 -0.24542,-0.03312 z m -6.03009,14.475275 a 10.535465,10.535465 0 0 1 10.0493,10.523995 10.547383,10.547383 0 0 1 -10.53589,10.535044 10.535465,10.535465 0 1 1 0.48659,-21.059039 z m 11.96168,10.270089 c 0.002,0.0013 0.003,0.0026 0.005,0.0045 4.8e-4,0.02488 -0.004,0.04978 -0.004,0.07473 a 12.465111,12.465111 0 0 0 -6.4e-4,-0.07897 z" /><path
     id="path1-7-6-9"
     style="fill:#d74141;fill-opacity:1;stroke-width:0.191557"
     d="m 387.77997,52.152605 a 0.76593064,0.76593064 0 0 0 -0.0433,-0.486174 l -2.0077,-4.588882 c 0.1343,-0.477249 0.24865,-0.963168 0.3413,-1.450255 l 3.84189,-3.210855 a 0.76619037,0.76619037 0 0 0 0.27463,-0.612362 20.579235,20.579235 0 0 0 -0.84909,-5.220742 0.76621247,0.76621247 0 0 0 -0.45458,-0.494333 l -4.66535,-1.825183 c -0.2422,-0.432608 -0.50465,-0.856453 -0.7838,-1.266249 l 0.44642,-4.987043 a 0.76668362,0.76668362 0 0 0 -0.23894,-0.627823 20.583734,20.583734 0 0 0 -4.29217,-3.090657 0.76630329,0.76630329 0 0 0 -0.67123,-0.02745 l -4.59281,2.009572 c -0.47523,-0.125811 -1.09167,-0.264103 -1.43883,-0.333476 l -3.21855,-3.850676 a 0.76619957,0.76619957 0 0 0 -0.61236,-0.274637 20.58183,20.58183 0 0 0 -5.22009,0.849247 0.76631479,0.76631479 0 0 0 -0.49447,0.455249 l -1.8257,4.66453 c -0.43274,0.242322 -0.85666,0.504709 -1.26624,0.783794 l -4.98706,-0.446408 a 0.76612871,0.76612871 0 0 0 -0.62732,0.23972 20.585995,20.585995 0 0 0 -3.09115,4.291363 0.76597841,0.76597841 0 0 0 -0.0274,0.671224 l 2.00768,4.588885 c -0.13441,0.47727 -0.24875,0.963145 -0.3413,1.450239 l -3.84189,3.210871 a 0.76588942,0.76588942 0 0 0 -0.27462,0.612354 20.579174,20.579174 0 0 0 0.8491,5.220735 0.7662087,0.7662087 0 0 0 0.45474,0.493681 l 4.66916,1.826785 c 0.24682,0.425179 0.58754,0.956881 0.78048,1.25359 l -0.44706,4.998767 a 0.76668015,0.76668015 0 0 0 0.23905,0.627159 20.583634,20.583634 0 0 0 4.29201,3.091315 0.76629897,0.76629897 0 0 0 0.67123,0.02745 l 4.59282,-2.009562 c 0.47526,0.125922 1.09187,0.263123 1.43905,0.332501 l 3.21841,3.851342 a 0.76619384,0.76619384 0 0 0 0.61251,0.27396 20.581796,20.581796 0 0 0 5.21993,-0.848578 0.76632198,0.76632198 0 0 0 0.49449,-0.455249 l 1.82567,-4.664534 c 0.43259,-0.242245 0.85654,-0.504665 1.26626,-0.783789 l 4.98704,0.446387 a 0.7661345,0.7661345 0 0 0 0.62732,-0.239716 20.58592,20.58592 0 0 0 3.09115,-4.291346 0.76593064,0.76593064 0 0 0 0.0708,-0.185048 z M 377.6125,44.8038 a 8.4286156,8.4286156 0 0 1 -10.03728,5.897158 8.4381505,8.4381505 0 0 1 -6.27324,-10.135586 8.4286156,8.4286156 0 1 1 16.31052,4.238428 z m -10.19003,7.432936 c -10e-4,6.48e-4 -0.002,0.0015 -0.005,0.003 -0.0195,-0.0042 -0.0378,-0.01301 -0.0573,-0.01759 a 9.9723771,9.9723771 0 0 0 0.0616,0.01415 z" /><path
     id="path1-7-6"
     style="fill:#d74141;fill-opacity:1;stroke-width:0.287325"
     d="m 403.76954,58.490627 a 1.1488517,1.1488517 0 0 0 -0.69497,0.230298 l -6.01016,4.508128 c -0.74295,-0.0321 -1.49169,-0.0321 -2.2347,0 l -6.00813,-4.50609 a 1.1492414,1.1492414 0 0 0 -0.98844,-0.190559 30.867663,30.867663 0 0 0 -7.33082,3.033615 1.1492744,1.1492744 0 0 0 -0.56555,0.833558 l -1.06181,7.438818 c -0.54842,0.502274 -1.07708,1.031101 -1.57949,1.57948 l -7.43474,1.061812 a 1.1499812,1.1499812 0 0 0 -0.83457,0.564539 30.874412,30.874412 0 0 0 -3.0377,7.328773 1.1494107,1.1494107 0 0 0 0.19055,0.989462 l 4.51222,6.015258 c -0.0205,0.737078 -0.01,1.68464 0.009,2.215342 l -4.51629,6.022393 a 1.1492551,1.1492551 0 0 0 -0.19056,0.98844 30.871557,30.871557 0 0 0 3.03362,7.329796 1.1494279,1.1494279 0 0 0 0.83458,0.56555 l 7.43779,1.06283 c 0.50251,0.54857 1.03126,1.07734 1.57949,1.57947 l 1.06181,7.43476 a 1.1491487,1.1491487 0 0 0 0.56555,0.83356 30.877802,30.877802 0 0 0 7.32776,3.0387 1.1489234,1.1489234 0 0 0 0.98946,-0.19056 l 6.01017,-4.50812 c 0.74302,0.0322 1.4917,0.0322 2.2347,0 l 6.00812,4.50609 a 1.1487899,1.1487899 0 0 0 0.98845,0.19056 30.867571,30.867571 0 0 0 7.3308,-3.03362 1.1492687,1.1492687 0 0 0 0.56454,-0.83356 l 1.06284,-7.44494 c 0.53598,-0.50647 1.19522,-1.18662 1.56214,-1.5703 l 7.45208,-1.06487 a 1.149976,1.149976 0 0 0 0.83355,-0.56453 30.874262,30.874262 0 0 0 3.03872,-7.328776 1.1494043,1.1494043 0 0 0 -0.19057,-0.98946 l -4.51221,-6.015257 c 0.0207,-0.737172 0.009,-1.684587 -0.009,-2.215342 l 4.51731,-6.022396 a 1.1492464,1.1492464 0 0 0 0.18953,-0.988443 30.871504,30.871504 0 0 0 -3.03259,-7.329792 1.1494386,1.1494386 0 0 0 -0.83457,-0.565557 l -7.43782,-1.06283 c -0.50234,-0.548365 -1.03112,-1.077176 -1.57948,-1.579481 l -1.06182,-7.434744 a 1.1491574,1.1491574 0 0 0 -0.56555,-0.833558 30.877691,30.877691 0 0 0 -7.32774,-3.038708 1.1488517,1.1488517 0 0 0 -0.29451,-0.03973 z M 396.5335,75.86079 a 12.642437,12.642437 0 0 1 12.05906,12.628674 12.656739,12.656739 0 0 1 -12.64296,12.641926 12.642437,12.642437 0 1 1 0.5839,-25.2706 z m 14.35387,12.323988 c 0.002,0.0015 0.003,0.0031 0.006,0.0054 5.2e-4,0.02986 -0.005,0.05973 -0.005,0.08967 a 14.95799,14.95799 0 0 0 -5.2e-4,-0.09477 z" /></svg>
