<?xml version="1.0" encoding="UTF-8" standalone="no"?>
<!-- Created with Inkscape (http://www.inkscape.org/) -->

<svg
   width="32"
   height="32"
   viewBox="0 0 32 32"
   version="1.1"
   id="svg1"
   inkscape:export-filename="favicon.svg"
   inkscape:export-xdpi="144"
   inkscape:export-ydpi="144"
   inkscape:version="1.4 (86a8ad7, 2024-10-11)"
   sodipodi:docname="favicon.svg"
   xmlns:inkscape="http://www.inkscape.org/namespaces/inkscape"
   xmlns:sodipodi="http://sodipodi.sourceforge.net/DTD/sodipodi-0.dtd"
   xmlns="http://www.w3.org/2000/svg"
   xmlns:svg="http://www.w3.org/2000/svg">
  <sodipodi:namedview
     id="namedview1"
     pagecolor="#ffffff"
     bordercolor="#000000"
     borderopacity="0.25"
     inkscape:showpageshadow="2"
     inkscape:pageopacity="0.0"
     inkscape:pagecheckerboard="0"
     inkscape:deskcolor="#d1d1d1"
     inkscape:document-units="px"
     inkscape:zoom="11.313709"
     inkscape:cx="11.932427"
     inkscape:cy="4.5519999"
     inkscape:window-width="1920"
     inkscape:window-height="1009"
     inkscape:window-x="-8"
     inkscape:window-y="-8"
     inkscape:window-maximized="1"
     inkscape:current-layer="layer1" />
  <defs
     id="defs1">
    <inkscape:path-effect
       effect="fillet_chamfer"
       id="path-effect2"
       is_visible="true"
       lpeversion="1"
       nodesatellites_param="F,0,0,1,0,0,0,1 @ F,0,0,1,0,0,0,1 @ F,0,0,1,0,0,0,1 @ F,0,0,1,0,0,0,1"
       radius="0"
       unit="px"
       method="auto"
       mode="F"
       chamfer_steps="1"
       flexible="false"
       use_knot_distance="true"
       apply_no_radius="true"
       apply_with_radius="true"
       only_selected="false"
       hide_knots="false" />
    <inkscape:path-effect
       effect="fillet_chamfer"
       id="path-effect1"
       is_visible="true"
       lpeversion="1"
       nodesatellites_param="F,0,0,1,0,0,0,1 @ F,0,0,1,0,0,0,1 @ F,0,0,1,0,0,0,1 @ F,0,0,1,0,0,0,1"
       radius="0"
       unit="px"
       method="auto"
       mode="F"
       chamfer_steps="1"
       flexible="false"
       use_knot_distance="true"
       apply_no_radius="true"
       apply_with_radius="true"
       only_selected="false"
       hide_knots="false" />
    <clipPath
       clipPathUnits="userSpaceOnUse"
       id="clipPath222">
      <path
         id="path222"
         style="fill:#ff0000;fill-opacity:1;fill-rule:nonzero;stroke:none"
         d="M 310.55664,206.07812 V 350.27734 H 491.17188 V 206.07812 Z m 69.23828,51.78711 c 0.47605,4e-5 0.97884,0.47178 1.03125,1.41407 0.0593,1.07345 0.0637,2.14983 0.0645,3.22461 -0.0471,2.6041 -0.0907,5.20809 -0.11718,7.8125 -0.0255,2.79236 -0.0304,5.58477 -0.0723,8.37695 -0.0288,1.92363 -0.0957,3.84619 -0.13867,5.76953 -0.029,1.32676 -0.0471,2.65346 -0.0586,3.98047 -0.005,1.09588 -0.0214,2.19131 -0.004,3.28711 -0.005,0.94359 0.0876,1.88179 0.17188,2.82031 0.0588,0.6277 0.0964,1.25685 0.12109,1.88672 0.0226,0.317 0.0458,0.6343 0.0703,0.95117 0.14566,1.88185 -1.75476,2.02835 -1.90039,0.14649 -0.0264,-0.34102 -0.0537,-0.68019 -0.0762,-1.02149 -0.0233,-0.59783 -0.0593,-1.19525 -0.11524,-1.79101 -0.0885,-0.98525 -0.18173,-1.97046 -0.17773,-2.96094 -0.0175,-1.11129 -0.003,-2.22262 0.002,-3.33399 0.0116,-1.33574 0.0294,-2.67233 0.0586,-4.00781 0.0429,-1.91868 0.11172,-3.8369 0.14062,-5.75586 0.042,-2.7891 0.0468,-5.57792 0.0723,-8.36718 0.0264,-2.5976 0.0675,-5.19569 0.11523,-7.79297 -5e-4,-1.07524 -0.008,-2.15058 -0.0644,-3.22461 h 0.002 c -0.05,-0.94242 0.39895,-1.4141 0.875,-1.41407 z" />
    </clipPath>
    <clipPath
       clipPathUnits="userSpaceOnUse"
       id="clipPath220">
      <path
         id="path221"
         style="fill:#ff0000;fill-opacity:1;fill-rule:nonzero;stroke:none;stroke-width:2.25454"
         d="M 224.75138,90.161853 V 210.41564 h 120.25096 v -26.81339 c -0.33462,-0.0159 -0.67106,-0.013 -1.00698,-0.0144 h -2.14701 -2.93663 -2.59504 -2.51966 -2.90113 -2.70597 -1.38404 c -0.0897,0 -0.16103,-0.013 -0.2351,-0.0225 h -0.1374 -0.81622 -0.76742 -0.65655 c -0.16761,0.009 -0.33448,0.009 -0.50126,0.0225 -0.0354,0.003 -0.0479,-0.009 -0.0799,-0.009 -0.16444,0.0101 -0.32686,0.0216 -0.49238,0.0281 -0.14059,0.006 -0.28527,0.006 -0.42586,0.009 -0.11197,9.2e-4 -0.22076,-2.3e-4 -0.33271,0 -0.15513,2.2e-4 -0.31064,-3e-5 -0.46579,0 -0.18169,3e-5 -0.36392,0 -0.54561,0 h -0.56336 -0.50571 -0.13764 c -0.11833,0 -0.22031,-0.0115 -0.30164,-0.031 -0.50153,-0.0101 -0.64671,-0.245 -0.40812,-0.38261 -0.0293,-0.0503 -0.0422,-0.1027 0.005,-0.15473 -0.77938,-0.0334 -1.55882,-0.066 -2.33776,-0.10414 -0.82857,-0.0383 -1.65843,-0.0608 -2.48861,-0.0788 -2.93486,-0.0637 -2.92664,-1.88726 -0.16852,-1.94117 0.089,-10e-4 0.18033,-10e-4 0.27504,0 0.87331,0.019 1.74565,0.0413 2.61723,0.0815 0.95133,0.0464 1.90066,0.0909 2.85235,0.12935 -0.0264,-0.0223 -0.0572,-0.0438 -0.0797,-0.0675 -0.64028,-0.60575 -0.55366,-1.10174 -0.64767,-1.8005 0.0159,-0.21013 0.0316,-0.42008 0.0443,-0.63018 -0.53821,-0.30836 -0.9575,-0.83461 -1.05133,-1.60357 -0.06,-0.49122 -0.12196,-0.97975 -0.17306,-1.47135 -0.0529,-0.86112 -0.13469,-1.72164 -0.26174,-2.57979 -0.201,-1.41914 -0.41275,-2.83824 -0.40367,-4.26493 -0.0397,-1.6007 -0.007,-3.20145 0.005,-4.80228 0.0263,-1.924 0.0668,-3.84923 0.13309,-5.77285 0.0677,-1.91994 0.15626,-3.8389 0.23067,-5.7588 -1.69259,0.2728 -3.25079,0.52075 -5.74017,0.93402 -2.72609,0.45261 -7.88751,1.30913 -10.91256,1.86802 -1.70469,0.3148 -2.11542,0.41465 -3.51332,0.72582 -3.90917,0.87052 -5.04467,-2.11406 -1.13559,-2.98488 1.41491,-0.31531 1.83645,-0.41536 3.5887,-0.73991 3.10266,-0.57462 8.24141,-1.43399 11.0767,-1.90458 2.91408,-0.48395 4.77805,-0.77976 6.73383,-1.09438 0.0818,-3.79606 0.10062,-7.59183 0.15535,-11.38817 0.007,-0.44354 0.0229,-0.8871 0.0311,-1.33067 -0.10107,6.1e-4 -0.19351,0.007 -0.29721,0.006 -3.86191,-0.053 -7.76411,-0.0205 -11.61787,-0.24756 -1.00181,-0.0588 -2.57475,0.42987 -2.99429,-0.25882 -1.33085,-2.1838 -1.003,-4.74685 -1.50381,-7.12042 0.59377,-0.16672 1.17198,-0.37506 1.78326,-0.50077 0.96734,-0.19882 4.20509,-0.50391 4.89736,-0.57109 2.72859,-0.26487 5.46197,-0.49606 8.19771,-0.7174 -0.0204,-0.006 -0.0411,-0.0115 -0.0622,-0.0168 0.0674,-0.0991 0.14127,-0.19689 0.21735,-0.29259 -0.0952,-0.0833 0.19169,-0.21329 0.26615,-0.32072 0.48808,-0.70216 0.89291,-1.42556 1.31751,-2.14372 -0.0204,-0.78546 -0.0543,-1.56996 -0.11969,-2.35472 h 0.005 c -0.0843,-1.00945 0.46067,-1.64281 1.18885,-1.90178 0.0529,-0.0978 0.0815,-0.2007 0.15536,-0.29257 -4.1e-4,-0.0101 2.5e-4,-0.0183 0,-0.0281 -0.007,-0.23915 0.0942,-0.48713 0.28833,-0.69207 0.0497,-0.0524 0.11583,-0.0998 0.17307,-0.14911 0.0182,-0.0115 0.0452,-0.0278 0.0754,-0.0449 h -0.30609 c -0.69793,0 -0.72975,-0.40452 -0.14195,-0.46983 0.0756,-0.069 0.22894,-0.12229 0.4569,-0.12661 0.0227,-4.2e-4 0.0472,-5.3e-4 0.0709,0 0.0204,4.8e-4 0.0418,-4.9e-4 0.062,0 0.14535,0.004 0.28958,0.0101 0.43471,0.0168 0.17102,0.007 0.34334,0.009 0.51459,0.009 h 0.66983 0.80291 0.8384 0.5545 c 0.1374,0 0.24963,0.0161 0.33714,0.0422 0.0738,0 0.14808,-3e-5 0.2219,0 0.0659,0 0.129,-3e-5 0.19509,0 0.0743,0 0.14763,-1.3e-4 0.22168,0 0.0813,1e-4 0.16739,-6.5e-4 0.2484,0 0.0763,0 0.15036,0.009 0.22622,0.0115 0.0561,9.8e-4 0.11219,0.006 0.16852,0.006 h 0.12855 0.11538 0.15081 0.13741 0.005 c 0.0159,0 0.0345,-0.001 0.0488,0 0.0252,-0.004 0.0443,-0.009 0.0754,-0.009 1.269,0.0406 2.54053,0.0385 3.81051,0.0449 1.84374,0.0101 3.68791,0.0179 5.53169,0.0197 1.64517,10e-4 3.29197,0.003 4.93727,0.003 1.28031,1.5e-4 2.55686,-2.3e-4 3.83713,0 h 0.41254 V 90.161882 Z M 329.1747,175.87977 c -0.0204,0.001 -0.0345,0.007 -0.0531,0.0115 -0.002,0.0266 -0.0159,0.0519 -0.0182,0.0788 -0.002,0.0252 0.0704,-0.0298 0.0709,-0.0534 1.4e-4,-0.013 -2e-4,-0.0254 0,-0.0366 z" />
    </clipPath>
  </defs>
  <g
     inkscape:label="Warstwa 1"
     inkscape:groupmode="layer"
     id="layer1">
    <rect
       style="fill:#ffffff;fill-opacity:1;stroke:none;stroke-width:0.86948;stroke-linecap:round;stroke-linejoin:round;stroke-miterlimit:2.1;stroke-dasharray:none;stroke-opacity:1"
       id="rect4"
       width="28.413271"
       height="28.909916"
       x="1.8767011"
       y="1.5525154" />
    <rect
       style="fill:none;fill-opacity:1;stroke:#1b2532;stroke-width:2.06945;stroke-linecap:butt;stroke-linejoin:round;stroke-miterlimit:4.2;stroke-dasharray:none;stroke-dashoffset:0;stroke-opacity:1;paint-order:normal"
       id="rect5"
       width="29.856001"
       height="30.042635"
       x="1.1397831"
       y="1.0797932"
       rx="3" />
    <g
       id="g5"
       transform="matrix(2.1438756,-0.44426268,0.49936055,1.9060461,-35.48063,-8.8039004)">
      <path
         id="rect3"
         clip-path="url(#clipPath220)"
         style="fill:none;fill-opacity:1;fill-rule:nonzero;stroke:#d74141;stroke-width:24.9458;stroke-linecap:round;stroke-linejoin:round;stroke-miterlimit:4.1;stroke-dasharray:none;stroke-dashoffset:0;stroke-opacity:1;paint-order:stroke fill markers"
         d="m 320.23,98.69 c -22.75,0.03 -45.51,-0.01 -68.26,0.02 -2.97,0.07 -6.04,-0.31 -8.89,0.76 -5.08,1.72 -9.04,6.42 -9.65,11.77 -0.32,2.77 -0.06,5.57 -0.15,8.35 0.01,22.88 -0.03,45.76 0.03,68.64 0.26,6.3 5.15,12.07 11.34,13.3 3,0.63 6.09,0.24 9.13,0.35 23.01,-0.01 46.02,0.03 69.03,-0.03 6.3,-0.25 12.09,-5.15 13.32,-11.34 0.62,-3.03 0.23,-6.15 0.35,-9.22 -0.01,-23 0.03,-46 -0.03,-69 -0.28,-6.28 -5.16,-12.03 -11.34,-13.26 -1.6,-0.35 -3.24,-0.38 -4.87,-0.36 z"
         transform="matrix(0.04076475,0.01432396,0.02329983,-0.06630929,7.37732,25.784096)" />
      <rect
         style="fill:#d74141;fill-opacity:1;stroke:none;stroke-width:1.53727"
         id="rect1"
         width="5.6372581"
         height="0.68150157"
         x="8.549118"
         y="-26.421164"
         transform="rotate(109.36051)"
         inkscape:label="rect1" />
      <rect
         style="fill:#d74141;fill-opacity:1;stroke:none;stroke-width:0.933232"
         id="rect1-8"
         width="1.1539824"
         height="1.2269337"
         x="12.948303"
         y="-30.413124"
         transform="rotate(109.36051)" />
      <rect
         style="fill:#d74141;fill-opacity:1;stroke:none;stroke-width:0.933232"
         id="rect1-8-5"
         width="1.1539824"
         height="1.2269337"
         x="8.5051365"
         y="-30.412308"
         transform="rotate(109.36051)" />
      <rect
         style="fill:#ffffff;fill-opacity:0;stroke:#ffffff;stroke-width:0.377312;stroke-linejoin:miter;stroke-miterlimit:1.5;stroke-dasharray:none;stroke-opacity:1"
         id="rect2"
         width="2.4039283"
         height="5.5853338"
         x="26.599783"
         y="8.5531731"
         sodipodi:type="rect"
         rx="0.00014703847"
         ry="0.00014703847"
         transform="rotate(19.360512)" />
    </g>
    <path
       id="text5"
       style="font-style:normal;font-variant:normal;font-weight:normal;font-stretch:normal;font-size:24.1144px;font-family:'Berlin Sans FB';-inkscape-font-specification:'Berlin Sans FB';text-align:start;writing-mode:lr-tb;direction:ltr;text-anchor:start;fill:#1b2532;fill-opacity:1;stroke:none;stroke-width:1.13763;stroke-linecap:butt;stroke-linejoin:miter;stroke-miterlimit:4.2;stroke-dasharray:none;stroke-dashoffset:0;stroke-opacity:1;paint-order:normal"
       d="M 9.967969,4.3538071 C 9.3017976,4.4034894 8.2961604,4.5006464 6.9519321,4.6435568 5.6147824,4.7774092 4.608603,4.8685014 3.9345934,4.9187752 3.5975882,4.9439151 3.4413706,5.0420221 3.4643721,5.2108696 l 0.030087,0.2025356 c 0.451696,3.0193899 0.7962334,5.8673738 1.0358259,8.5444028 0.08416,0.940347 0.1681466,2.356807 0.2510152,4.252407 0.08995,1.886542 0.1758251,3.300939 0.2599869,4.241288 0.017426,0.194849 0.1253138,0.285286 0.3212457,0.270672 0.1332367,-0.0099 0.3363241,-0.03921 0.608353,-0.08509 0.2720311,-0.04585 0.4733276,-0.07289 0.606556,-0.08292 0.1645764,-0.01232 0.4053122,-0.0081 0.7225944,0.01087 0.3243632,0.0099 0.5665266,0.0079 0.7232728,-0.0038 0.1567435,-0.01167 0.2258032,-0.105243 0.2098836,-0.283114 -0.052303,-0.584542 -0.1576207,-1.46497 -0.3178692,-2.638431 -0.1531739,-1.18252 -0.256936,-2.068992 -0.3100141,-2.662006 -0.036428,-0.406632 0.027065,-0.630475 0.1893774,-0.668166 0.2007364,-0.04911 0.8407324,-0.112874 1.9222825,-0.193521 0.6113068,-0.04568 0.9697658,-0.06833 1.0724108,-0.06745 0.460629,0.03388 0.762547,0.198208 0.907402,0.494415 1.443245,2.902788 2.317186,4.634215 2.61954,5.191579 0.113011,0.204773 0.258069,0.300456 0.438327,0.287011 0.164581,-0.01232 0.406136,-0.04438 0.725188,-0.09379 0.326892,-0.04995 0.572668,-0.08033 0.737255,-0.0926 0.148913,-0.01105 0.378588,-0.01615 0.686515,-0.01361 0.307929,0.0026 0.535809,-2.6e-4 0.68472,-0.01137 0.125393,-0.0094 0.185077,-0.04798 0.17902,-0.115737 -0.01205,-0.135553 -0.583226,-1.236424 -1.714769,-3.301117 -1.12371,-2.065278 -1.691841,-3.156266 -1.702455,-3.274869 -0.009,-0.101644 0.05631,-0.213039 0.195342,-0.334281 0.832037,-0.752841 1.378232,-1.523074 1.639162,-2.310071 0.249043,-0.743517 0.3184,-1.743476 0.206184,-2.9972751 C 16.227819,7.65554 15.521356,6.293532 14.272721,5.388874 13.142149,4.5692005 11.707857,4.2240258 9.967969,4.3538071 Z M 8.7102731,7.0951355 c 1.5674659,-0.1168879 2.6691439,-0.00614 3.3067339,0.3300743 0.861335,0.45597 1.359693,1.4496678 1.496927,2.9830282 0.176659,1.973884 -0.815372,3.042673 -2.978477,3.204023 -0.8621159,0.06412 -1.667335,0.102225 -2.4156724,0.115404 -0.323605,-0.0015 -0.5562405,-0.0062 -0.6988316,-0.01265 -0.079889,-0.01114 -0.1338791,-0.02317 -0.1589048,-0.03837 L 7.0448635,11.250205 C 6.8666864,9.2593739 6.7852886,8.0315047 6.7992087,7.5699445 6.8030068,7.3479297 7.4406277,7.1898557 8.7102748,7.0951494 Z" />
  </g>
</svg>
