<?xml version="1.0" encoding="UTF-8" standalone="no"?>
<!-- Created with Inkscape (http://www.inkscape.org/) -->

<svg
   width="180.61508"
   height="144.19922"
   viewBox="0 0 180.61508 144.19922"
   version="1.1"
   id="svg1"
   inkscape:version="1.4.2 (f4327f4, 2025-05-13)"
   sodipodi:docname="logo.svg"
   inkscape:export-filename="testowe logo svg.svg"
   inkscape:export-xdpi="96"
   inkscape:export-ydpi="96"
   xmlns:inkscape="http://www.inkscape.org/namespaces/inkscape"
   xmlns:sodipodi="http://sodipodi.sourceforge.net/DTD/sodipodi-0.dtd"
   xmlns="http://www.w3.org/2000/svg"
   xmlns:svg="http://www.w3.org/2000/svg">
  <sodipodi:namedview
     id="namedview1"
     pagecolor="#ffffff"
     bordercolor="#000000"
     borderopacity="0"
     inkscape:showpageshadow="2"
     inkscape:pageopacity="0.0"
     inkscape:pagecheckerboard="false"
     inkscape:deskcolor="#d1d1d1"
     inkscape:document-units="px"
     inkscape:zoom="1"
     inkscape:cx="209"
     inkscape:cy="285.5"
     inkscape:window-width="1920"
     inkscape:window-height="1009"
     inkscape:window-x="-8"
     inkscape:window-y="-8"
     inkscape:window-maximized="1"
     inkscape:current-layer="layer1">
    <inkscape:page
       x="0"
       y="0"
       width="180.61508"
       height="144.19922"
       id="page2"
       margin="0"
       bleed="0" />
  </sodipodi:namedview>
  <defs
     id="defs1">
    <clipPath
       clipPathUnits="userSpaceOnUse"
       id="clipPath220">
      <path
         id="path221"
         style="fill:#ff0000;fill-opacity:1;fill-rule:nonzero;stroke:none;stroke-width:2.25454"
         d="M 224.75138,90.161853 V 210.41564 h 120.25096 v -26.81339 c -0.33462,-0.0159 -0.67106,-0.013 -1.00698,-0.0144 h -2.14701 -2.93663 -2.59504 -2.51966 -2.90113 -2.70597 -1.38404 c -0.0897,0 -0.16103,-0.013 -0.2351,-0.0225 h -0.1374 -0.81622 -0.76742 -0.65655 c -0.16761,0.009 -0.33448,0.009 -0.50126,0.0225 -0.0354,0.003 -0.0479,-0.009 -0.0799,-0.009 -0.16444,0.0101 -0.32686,0.0216 -0.49238,0.0281 -0.14059,0.006 -0.28527,0.006 -0.42586,0.009 -0.11197,9.2e-4 -0.22076,-2.3e-4 -0.33271,0 -0.15513,2.2e-4 -0.31064,-3e-5 -0.46579,0 -0.18169,3e-5 -0.36392,0 -0.54561,0 h -0.56336 -0.50571 -0.13764 c -0.11833,0 -0.22031,-0.0115 -0.30164,-0.031 -0.50153,-0.0101 -0.64671,-0.245 -0.40812,-0.38261 -0.0293,-0.0503 -0.0422,-0.1027 0.005,-0.15473 -0.77938,-0.0334 -1.55882,-0.066 -2.33776,-0.10414 -0.82857,-0.0383 -1.65843,-0.0608 -2.48861,-0.0788 -2.93486,-0.0637 -2.92664,-1.88726 -0.16852,-1.94117 0.089,-10e-4 0.18033,-10e-4 0.27504,0 0.87331,0.019 1.74565,0.0413 2.61723,0.0815 0.95133,0.0464 1.90066,0.0909 2.85235,0.12935 -0.0264,-0.0223 -0.0572,-0.0438 -0.0797,-0.0675 -0.64028,-0.60575 -0.55366,-1.10174 -0.64767,-1.8005 0.0159,-0.21013 0.0316,-0.42008 0.0443,-0.63018 -0.53821,-0.30836 -0.9575,-0.83461 -1.05133,-1.60357 -0.06,-0.49122 -0.12196,-0.97975 -0.17306,-1.47135 -0.0529,-0.86112 -0.13469,-1.72164 -0.26174,-2.57979 -0.201,-1.41914 -0.41275,-2.83824 -0.40367,-4.26493 -0.0397,-1.6007 -0.007,-3.20145 0.005,-4.80228 0.0263,-1.924 0.0668,-3.84923 0.13309,-5.77285 0.0677,-1.91994 0.15626,-3.8389 0.23067,-5.7588 -1.69259,0.2728 -3.25079,0.52075 -5.74017,0.93402 -2.72609,0.45261 -7.88751,1.30913 -10.91256,1.86802 -1.70469,0.3148 -2.11542,0.41465 -3.51332,0.72582 -3.90917,0.87052 -5.04467,-2.11406 -1.13559,-2.98488 1.41491,-0.31531 1.83645,-0.41536 3.5887,-0.73991 3.10266,-0.57462 8.24141,-1.43399 11.0767,-1.90458 2.91408,-0.48395 4.77805,-0.77976 6.73383,-1.09438 0.0818,-3.79606 0.10062,-7.59183 0.15535,-11.38817 0.007,-0.44354 0.0229,-0.8871 0.0311,-1.33067 -0.10107,6.1e-4 -0.19351,0.007 -0.29721,0.006 -3.86191,-0.053 -7.76411,-0.0205 -11.61787,-0.24756 -1.00181,-0.0588 -2.57475,0.42987 -2.99429,-0.25882 -1.33085,-2.1838 -1.003,-4.74685 -1.50381,-7.12042 0.59377,-0.16672 1.17198,-0.37506 1.78326,-0.50077 0.96734,-0.19882 4.20509,-0.50391 4.89736,-0.57109 2.72859,-0.26487 5.46197,-0.49606 8.19771,-0.7174 -0.0204,-0.006 -0.0411,-0.0115 -0.0622,-0.0168 0.0674,-0.0991 0.14127,-0.19689 0.21735,-0.29259 -0.0952,-0.0833 0.19169,-0.21329 0.26615,-0.32072 0.48808,-0.70216 0.89291,-1.42556 1.31751,-2.14372 -0.0204,-0.78546 -0.0543,-1.56996 -0.11969,-2.35472 h 0.005 c -0.0843,-1.00945 0.46067,-1.64281 1.18885,-1.90178 0.0529,-0.0978 0.0815,-0.2007 0.15536,-0.29257 -4.1e-4,-0.0101 2.5e-4,-0.0183 0,-0.0281 -0.007,-0.23915 0.0942,-0.48713 0.28833,-0.69207 0.0497,-0.0524 0.11583,-0.0998 0.17307,-0.14911 0.0182,-0.0115 0.0452,-0.0278 0.0754,-0.0449 h -0.30609 c -0.69793,0 -0.72975,-0.40452 -0.14195,-0.46983 0.0756,-0.069 0.22894,-0.12229 0.4569,-0.12661 0.0227,-4.2e-4 0.0472,-5.3e-4 0.0709,0 0.0204,4.8e-4 0.0418,-4.9e-4 0.062,0 0.14535,0.004 0.28958,0.0101 0.43471,0.0168 0.17102,0.007 0.34334,0.009 0.51459,0.009 h 0.66983 0.80291 0.8384 0.5545 c 0.1374,0 0.24963,0.0161 0.33714,0.0422 0.0738,0 0.14808,-3e-5 0.2219,0 0.0659,0 0.129,-3e-5 0.19509,0 0.0743,0 0.14763,-1.3e-4 0.22168,0 0.0813,1e-4 0.16739,-6.5e-4 0.2484,0 0.0763,0 0.15036,0.009 0.22622,0.0115 0.0561,9.8e-4 0.11219,0.006 0.16852,0.006 h 0.12855 0.11538 0.15081 0.13741 0.005 c 0.0159,0 0.0345,-0.001 0.0488,0 0.0252,-0.004 0.0443,-0.009 0.0754,-0.009 1.269,0.0406 2.54053,0.0385 3.81051,0.0449 1.84374,0.0101 3.68791,0.0179 5.53169,0.0197 1.64517,10e-4 3.29197,0.003 4.93727,0.003 1.28031,1.5e-4 2.55686,-2.3e-4 3.83713,0 h 0.41254 V 90.161882 Z M 329.1747,175.87977 c -0.0204,0.001 -0.0345,0.007 -0.0531,0.0115 -0.002,0.0266 -0.0159,0.0519 -0.0182,0.0788 -0.002,0.0252 0.0704,-0.0298 0.0709,-0.0534 1.4e-4,-0.013 -2e-4,-0.0254 0,-0.0366 z" />
    </clipPath>
    <clipPath
       clipPathUnits="userSpaceOnUse"
       id="clipPath222">
      <path
         id="path222"
         style="fill:#ff0000;fill-opacity:1;fill-rule:nonzero;stroke:none"
         d="M 310.55664,206.07812 V 350.27734 H 491.17188 V 206.07812 Z m 69.23828,51.78711 c 0.47605,4e-5 0.97884,0.47178 1.03125,1.41407 0.0593,1.07345 0.0637,2.14983 0.0645,3.22461 -0.0471,2.6041 -0.0907,5.20809 -0.11718,7.8125 -0.0255,2.79236 -0.0304,5.58477 -0.0723,8.37695 -0.0288,1.92363 -0.0957,3.84619 -0.13867,5.76953 -0.029,1.32676 -0.0471,2.65346 -0.0586,3.98047 -0.005,1.09588 -0.0214,2.19131 -0.004,3.28711 -0.005,0.94359 0.0876,1.88179 0.17188,2.82031 0.0588,0.6277 0.0964,1.25685 0.12109,1.88672 0.0226,0.317 0.0458,0.6343 0.0703,0.95117 0.14566,1.88185 -1.75476,2.02835 -1.90039,0.14649 -0.0264,-0.34102 -0.0537,-0.68019 -0.0762,-1.02149 -0.0233,-0.59783 -0.0593,-1.19525 -0.11524,-1.79101 -0.0885,-0.98525 -0.18173,-1.97046 -0.17773,-2.96094 -0.0175,-1.11129 -0.003,-2.22262 0.002,-3.33399 0.0116,-1.33574 0.0294,-2.67233 0.0586,-4.00781 0.0429,-1.91868 0.11172,-3.8369 0.14062,-5.75586 0.042,-2.7891 0.0468,-5.57792 0.0723,-8.36718 0.0264,-2.5976 0.0675,-5.19569 0.11523,-7.79297 -5e-4,-1.07524 -0.008,-2.15058 -0.0644,-3.22461 h 0.002 c -0.05,-0.94242 0.39895,-1.4141 0.875,-1.41407 z" />
    </clipPath>
  </defs>
  <g
     inkscape:label="Warstwa 1"
     inkscape:groupmode="layer"
     id="layer1"
     transform="translate(-310.55664,-206.07812)">
    <rect
       style="fill:#ffffff;fill-opacity:1;stroke:none;stroke-width:4.338;stroke-linecap:round;stroke-linejoin:round;stroke-miterlimit:2.1;stroke-dasharray:none;stroke-opacity:1"
       id="rect4"
       width="161"
       height="127"
       x="321"
       y="213" />
    <rect
       style="fill:none;fill-opacity:1;stroke:#1b2532;stroke-width:12.8807;stroke-linecap:round;stroke-linejoin:round;stroke-dasharray:none;stroke-opacity:1;paint-order:normal"
       id="rect157"
       width="167.73463"
       height="131.31891"
       x="316.99673"
       y="212.51845"
       rx="10.577118"
       ry="13.405881"
       clip-path="url(#clipPath222)" />
    <path
       id="rect3"
       clip-path="url(#clipPath220)"
       style="fill:none;fill-opacity:1;stroke:#d74141;stroke-width:24.633;stroke-linecap:round;stroke-linejoin:round;stroke-dasharray:none;stroke-opacity:1;paint-order:stroke fill markers"
       d="m 320.23242,98.6875 c -22.7517,0.0255 -45.50507,-0.0083 -68.25742,0.01984 -2.96954,0.06853 -6.04343,-0.306542 -8.89102,0.759453 -5.07636,1.716317 -9.04443,6.417087 -9.65468,11.773097 -0.31569,2.77261 -0.0605,5.56795 -0.14619,8.35073 0.01,22.88147 -0.0286,45.76366 0.028,68.64467 0.25733,6.29574 5.14648,12.06873 11.33761,13.29847 3.00408,0.62546 6.08721,0.23556 9.12819,0.34718 23.0095,-0.009 46.01958,0.027 69.02871,-0.0267 6.30408,-0.24791 12.08627,-5.14502 13.31612,-11.34281 0.62478,-3.03414 0.23225,-6.14564 0.34509,-9.21611 -0.01,-22.99825 0.0285,-45.99731 -0.0278,-68.99505 -0.2756,-6.28135 -5.15966,-12.02714 -11.33589,-13.255898 -1.59786,-0.349394 -3.24212,-0.379155 -4.87078,-0.356866 z"
       transform="matrix(0.44029012,0,0,0.69425115,238.75122,174.62964)" />
    <rect
       style="fill:#d74141;fill-opacity:1;stroke:none;stroke-width:15.2303"
       id="rect1"
       width="55.683899"
       height="6.9444928"
       x="251.62193"
       y="-349.95773"
       transform="rotate(90)"
       inkscape:label="rect1" />
    <rect
       style="fill:#d74141;fill-opacity:1;stroke:none;stroke-width:9.24592"
       id="rect1-8"
       width="11.398847"
       height="12.50244"
       x="295.07635"
       y="-390.63577"
       transform="rotate(90)" />
    <rect
       style="fill:#d74141;fill-opacity:1;stroke:none;stroke-width:9.24592"
       id="rect1-8-5"
       width="11.398847"
       height="12.50244"
       x="251.1875"
       y="-390.62744"
       transform="rotate(90)" />
    <rect
       style="fill:#ffffff;fill-opacity:0;stroke:#ffffff;stroke-width:3.73816;stroke-linejoin:miter;stroke-miterlimit:1.5;stroke-dasharray:none;stroke-opacity:1"
       id="rect2"
       width="24.496"
       height="55.171001"
       x="351.77786"
       y="251.662"
       sodipodi:type="rect"
       rx="0.0014714519" />
    <path
       d="m 397.23396,283.2921 v 8.61737 h -6.03985 v 16.46534 q 0,5.34738 0.26929,6.19373 0.53859,1.53882 2.19282,1.53882 1.23105,0 3.53927,-1.0387 l 0.76941,8.38655 q -3.07763,1.61575 -6.96314,1.61575 -3.3854,0 -5.42433,-1.61575 -2.03893,-1.61576 -2.7314,-4.65492 -0.53858,-2.23129 -0.53858,-9.07902 v -17.8118 h -4.07787 v -8.61737 h 4.07787 v -8.11726 l 8.88666,-6.30914 v 14.4264 z m 14.6957,40.85557 H 403.043 V 283.2921 h 8.23266 v 5.80903 q 2.11588,-4.07786 3.7701,-5.38586 1.6927,-1.34646 3.88552,-1.34646 3.03916,0 5.80903,2.03893 l -2.76987,9.42525 q -2.19281,-1.76964 -4.15481,-1.76964 -1.84658,0 -3.26998,1.38494 -1.38494,1.34646 -2.00046,4.92421 -0.61553,3.57775 -0.61553,13.15688 z m 16.61922,0 v -56.39762 h 8.88666 v 56.39762 z"
       id="text4"
       style="font-weight:bold;font-stretch:condensed;font-size:78.7874px;font-family:Arial;-inkscape-font-specification:'Arial, Bold Condensed';fill:#1b2532;stroke-width:10.1762"
       transform="scale(1.0551875,0.9476989)"
       aria-label="trl" />
  </g>
</svg>
